P2
# C:\Work\Python\workspace\CS555\dst.pgm
60  80
220
175 177 177 179 176 176 176 179 177 177 175 179 
178 178 178 178 180 178 183 181 177 178 178 181 
180 182 180 182 179 177 181 179 184 184 180 182 
182 182 185 181 182 180 182 179 178 182 178 181 
180 180 187 182 184 177 176 180 181 183 182 179 
180 177 178 182 179 177 181 180 178 180 178 179 
177 176 179 179 174 181 177 180 180 181 182 181 
180 179 178 179 179 180 178 179 177 181 182 181 
184 181 180 184 182 182 176 178 184 179 184 188 
181 182 180 180 180 182 179 179 181 179 181 180 
178 175 184 180 180 177 183 181 174 177 179 176 
182 181 179 174 177 180 174 179 178 179 180 179 
183 183 180 177 181 180 181 180 180 182 179 184 
177 186 181 182 180 182 180 178 178 179 187 184 
179 178 184 183 182 181 179 184 180 185 178 182 
178 179 178 174 177 177 176 178 183 184 181 178 
183 176 180 186 178 179 178 183 176 181 183 181 
179 180 178 180 181 180 182 176 181 180 180 179 
179 174 181 182 183 182 180 181 187 177 180 179 
182 180 179 187 177 177 183 183 183 181 184 182 
180 176 179 174 178 179 183 177 179 178 178 179 
178 180 178 179 182 178 182 179 179 181 181 180 
182 183 182 181 178 182 181 178 181 177 179 181 
176 181 180 182 180 179 182 185 180 179 181 184 
184 182 181 186 182 182 184 184 180 182 185 183 
177 178 177 182 179 172 176 178 179 182 174 179 
177 179 175 179 181 177 183 179 176 182 179 186 
179 180 179 182 184 179 181 181 179 182 182 180 
184 180 173 178 182 180 178 175 184 180 178 182 
183 177 180 185 181 178 182 184 184 178 181 175 
175 182 177 175 180 176 184 180 180 178 179 181 
179 178 174 180 178 182 178 179 182 182 181 179 
182 173 178 178 183 180 184 179 184 181 182 182 
181 178 177 180 181 179 176 179 177 180 180 185 
177 181 180 181 178 178 182 181 182 184 175 181 
178 183 183 181 173 183 179 182 178 185 179 179 
181 180 181 179 180 179 179 177 177 179 179 181 
180 176 182 184 180 183 179 184 182 180 181 181 
182 184 180 180 182 182 183 182 179 179 184 183 
181 181 185 185 181 185 181 184 178 182 179 181 
179 178 182 182 181 180 179 183 175 178 175 177 
178 181 177 179 181 181 181 177 179 180 181 179 
179 180 178 181 180 184 177 181 181 180 189 179 
180 181 181 180 177 180 178 185 183 187 182 181 
184 175 185 181 183 181 181 179 181 181 183 181 
179 183 173 176 176 178 178 184 183 178 180 181 
180 181 181 182 178 180 183 178 180 180 182 180 
177 179 180 179 181 180 181 183 182 182 181 183 
184 178 181 182 180 178 184 180 183 183 181 175 
182 180 186 182 182 177 183 181 183 181 181 181 
182 174 180 179 181 181 180 182 181 175 177 179 
178 180 181 179 177 179 181 183 178 178 183 180 
180 180 179 182 176 177 180 179 181 179 181 178 
174 180 180 175 181 179 180 177 182 181 181 183 
180 175 185 181 182 176 175 186 181 184 185 182 
179 180 180 180 182 178 181 181 180 178 179 181 
179 175 180 181 180 181 177 179 180 181 179 178 
179 180 178 182 179 176 180 182 184 180 179 177 
180 176 184 184 183 180 182 182 179 180 177 183 
180 183 183 179 181 180 182 181 180 182 185 181 
175 177 179 181 179 178 183 182 180 181 179 180 
178 172 177 181 181 182 176 176 180 180 185 178 
180 176 181 180 174 177 109 94 93 163 156 172 
176 181 179 180 177 176 180 179 177 178 182 183 
181 180 180 187 179 182 183 183 181 176 182 181 
178 183 184 177 178 178 182 180 183 180 181 182 
180 177 184 177 179 177 178 180 176 180 177 178 
178 176 166 49 12 13 13 11 12 13 13 18 
22 138 181 183 177 179 179 182 176 177 184 179 
182 184 186 182 182 181 179 182 182 183 180 180 
180 176 178 174 178 175 179 179 174 179 178 180 
183 177 178 179 181 181 183 178 179 179 178 175 
152 51 12 10 8 9 8 8 8 8 8 9 
11 13 69 183 180 179 181 179 182 178 179 184 
181 180 185 179 181 179 175 183 182 181 183 183 
177 178 184 179 176 177 180 178 177 176 178 174 
179 178 180 176 178 181 180 176 178 177 182 104 
14 12 8 8 7 8 7 8 8 8 8 7 
8 8 11 17 159 178 178 177 180 182 176 181 
179 179 182 177 179 185 174 184 178 181 180 185 
178 180 178 178 180 177 179 174 178 180 176 180 
178 179 180 179 178 178 178 177 178 180 104 14 
9 8 8 9 9 11 11 10 12 10 10 9 
9 8 9 10 17 170 174 179 181 182 181 184 
176 182 178 182 184 180 181 181 183 180 180 185 
180 181 180 180 177 180 179 179 179 180 180 182 
178 178 179 179 178 178 179 178 180 122 13 11 
10 10 14 16 19 22 22 25 20 20 17 14 
12 10 9 9 10 18 140 175 179 180 179 181 
178 180 179 183 179 178 180 186 181 181 183 183 
178 181 183 177 179 181 179 179 179 178 179 177 
177 180 178 177 179 180 178 178 151 16 12 14 
17 21 39 56 62 63 46 46 53 52 38 39 
28 22 14 13 11 11 19 169 178 180 178 176 
184 184 180 178 179 179 180 179 180 179 177 180 
186 179 178 175 178 178 179 179 181 177 180 176 
180 179 177 178 180 179 178 171 24 12 13 47 
60 75 81 86 87 89 89 91 92 92 89 77 
72 62 40 35 17 11 11 60 169 175 177 175 
177 183 178 179 177 177 180 189 182 185 179 180 
181 178 179 181 179 175 177 181 174 176 178 176 
180 174 179 183 178 173 175 26 13 15 68 86 
85 86 88 96 97 96 96 98 95 96 93 91 
85 82 83 68 57 19 10 14 66 178 177 178 
181 177 183 177 178 178 182 187 180 180 186 184 
180 178 179 173 181 177 177 178 179 179 179 179 
177 184 178 174 179 173 131 17 17 53 85 94 
93 92 97 100 105 108 106 102 102 103 101 94 
95 88 88 84 78 67 19 11 17 165 178 177 
179 174 178 176 180 177 179 178 180 172 182 179 
179 182 179 180 179 179 180 180 175 174 178 177 
181 176 173 172 174 172 21 16 39 90 88 93 
95 101 103 114 111 112 113 108 115 115 109 104 
99 99 95 92 88 87 59 14 13 26 176 174 
176 178 176 178 178 181 180 182 182 187 182 183 
177 179 178 176 180 178 177 180 175 177 177 177 
176 174 175 174 172 119 19 24 76 90 87 93 
97 107 115 119 124 119 123 123 126 119 120 121 
113 107 103 95 96 91 75 30 12 19 148 173 
171 179 173 179 179 177 177 180 183 176 179 179 
175 179 181 179 177 176 177 180 177 177 180 175 
177 173 172 174 170 41 22 35 79 92 91 92 
96 108 113 119 114 118 121 123 124 124 124 120 
121 106 102 100 98 96 85 65 12 18 26 174 
177 177 176 175 177 173 177 175 180 184 183 179 
180 178 180 179 177 173 180 177 178 174 175 177 
178 172 172 172 172 28 23 55 85 90 92 95 
96 95 106 107 113 113 113 118 119 124 109 112 
110 106 103 98 95 97 91 70 15 17 21 161 
174 176 171 175 173 176 173 179 179 174 182 179 
176 180 181 175 178 177 176 176 173 176 176 173 
175 173 175 173 170 24 23 71 88 95 94 94 
98 103 107 108 100 109 108 107 110 108 111 109 
111 105 101 99 97 93 91 78 30 15 20 160 
174 174 169 178 176 178 173 175 177 176 180 175 
174 180 181 173 176 176 178 178 178 175 171 177 
173 172 169 169 156 21 24 72 85 88 92 94 
98 104 108 112 108 101 102 102 101 110 115 114 
108 107 96 99 97 92 90 76 31 13 17 139 
171 174 171 176 176 172 176 182 174 174 176 175 
177 177 177 176 175 174 174 177 174 170 177 172 
172 168 169 172 138 20 25 77 84 86 96 99 
105 109 119 121 120 109 107 105 110 115 113 119 
115 108 100 96 93 92 88 77 36 14 16 123 
172 171 174 173 175 174 177 176 178 178 179 175 
175 175 174 173 177 176 176 175 173 173 172 171 
168 168 164 159 107 20 26 71 84 88 90 85 
90 109 110 113 115 111 112 109 106 106 109 114 
117 110 105 99 91 87 88 77 33 14 16 147 
171 171 171 174 170 177 173 177 172 175 181 181 
175 177 176 174 171 174 170 172 172 170 170 169 
169 165 160 162 125 20 23 81 82 82 63 64 
64 48 53 66 89 100 103 102 97 93 83 81 
73 72 66 66 84 90 86 82 32 14 17 157 
165 164 170 167 169 174 177 172 175 176 174 175 
176 177 177 172 175 173 172 174 173 168 168 168 
168 165 162 156 89 22 28 82 89 73 77 84 
98 81 62 58 65 88 98 97 88 71 53 52 
54 58 81 76 67 89 89 83 35 15 16 131 
161 169 166 170 168 170 175 172 175 176 177 176 
178 176 175 173 174 179 170 173 170 168 170 167 
167 164 160 156 147 20 24 92 86 84 97 111 
112 117 100 76 64 70 89 93 77 65 65 88 
110 116 105 89 75 72 92 88 28 17 18 145 
156 162 167 165 169 173 169 177 174 177 178 178 
174 176 176 176 173 174 172 168 170 171 169 166 
163 159 162 154 99 33 23 91 44 69 91 92 
53 36 76 84 70 70 98 97 80 70 78 90 
95 98 105 96 91 76 91 87 29 18 21 150 
158 164 166 165 170 176 175 170 172 175 177 181 
174 174 176 173 172 173 171 172 172 167 167 168 
162 161 158 156 81 51 96 32 95 87 35 38 
22 21 48 75 67 27 111 111 86 69 68 34 
23 22 32 41 87 84 39 91 28 19 36 152 
158 162 163 164 169 167 168 171 176 173 179 176 
174 174 178 172 172 171 168 169 167 166 165 162 
161 162 156 153 67 65 48 93 92 70 96 112 
113 108 105 98 99 63 104 106 82 96 92 93 
84 94 96 80 47 86 101 90 36 75 33 141 
161 156 169 166 165 163 175 172 177 175 173 175 
176 175 170 173 173 170 173 171 169 164 160 162 
158 157 154 153 63 83 83 96 92 82 93 70 
65 64 82 107 77 60 87 96 58 67 98 72 
72 82 93 99 103 105 120 95 43 65 30 108 
152 162 158 161 162 172 172 167 170 173 172 174 
171 175 175 175 170 170 173 167 166 166 163 161 
157 155 149 151 55 71 95 98 102 101 107 108 
101 102 100 95 85 86 110 105 75 118 97 104 
100 104 107 110 106 100 104 94 49 82 48 85 
152 157 161 165 161 164 169 167 168 168 175 173 
177 172 173 172 170 169 169 167 169 172 163 160 
159 157 153 154 77 76 96 97 97 99 148 104 
102 100 95 101 83 102 100 104 100 86 94 106 
100 107 105 108 102 118 95 95 66 63 78 92 
152 151 155 159 161 170 166 166 169 173 171 171 
175 171 173 169 173 168 168 168 170 166 161 159 
159 155 154 148 74 83 96 92 103 104 95 91 
104 99 90 75 89 99 108 109 94 68 82 96 
95 101 99 105 90 94 94 98 74 62 87 137 
149 152 157 160 163 167 166 166 167 170 171 175 
176 173 172 173 171 168 166 164 165 163 161 157 
154 153 147 150 143 70 93 97 102 111 114 111 
96 83 68 101 98 107 117 112 98 97 72 68 
92 99 115 105 102 102 95 99 69 68 64 146 
151 152 159 158 155 169 163 168 167 172 170 170 
172 173 174 169 169 169 166 167 163 163 161 158 
156 153 151 146 144 90 71 100 104 101 102 95 
76 53 72 101 89 83 89 87 85 105 91 69 
66 91 102 109 102 104 99 95 69 81 90 148 
149 152 158 156 163 162 166 168 166 168 172 172 
173 173 175 168 168 167 171 165 166 161 162 154 
158 150 150 146 149 100 59 97 92 93 85 72 
56 68 81 47 48 52 63 44 42 40 53 78 
51 75 89 94 95 98 95 93 82 96 121 153 
147 150 154 159 160 163 167 165 167 170 170 170 
173 171 172 171 167 170 166 166 167 161 154 158 
154 153 151 146 139 139 112 101 91 83 70 57 
60 82 86 80 76 68 55 54 66 64 83 91 
71 54 71 80 88 98 96 94 96 93 142 145 
151 151 156 153 158 160 165 162 162 170 169 171 
171 171 172 169 167 167 164 163 164 161 158 158 
156 150 151 146 144 140 138 98 90 79 71 51 
67 88 92 97 95 92 80 87 96 97 99 89 
77 58 60 71 79 92 94 96 84 140 147 153 
149 157 153 155 160 161 160 167 172 170 167 174 
172 171 172 168 167 165 163 161 163 160 161 158 
156 154 152 150 139 141 140 94 87 81 83 62 
64 72 56 63 66 66 76 66 65 59 70 74 
72 52 67 65 65 88 93 116 137 141 147 148 
148 153 151 155 157 165 164 168 163 164 168 174 
175 171 169 167 167 166 165 161 161 160 157 155 
155 154 149 149 143 144 140 97 87 82 84 87 
75 49 24 77 84 116 69 101 68 64 56 17 
46 72 79 71 81 88 94 136 141 142 143 147 
149 153 155 153 158 159 167 163 165 164 167 171 
170 171 170 169 167 168 165 163 162 164 159 155 
155 154 152 144 145 143 138 137 89 81 79 82 
82 87 71 64 73 136 127 148 109 82 65 80 
88 83 52 80 83 92 102 137 142 143 152 149 
151 153 154 163 164 161 167 166 169 169 172 170 
168 170 171 169 165 165 163 163 164 162 159 157 
154 153 150 148 146 141 142 138 98 87 83 80 
84 94 86 76 80 118 106 113 108 93 78 88 
78 77 77 82 83 89 141 142 150 149 148 149 
154 154 155 160 161 157 170 161 167 169 169 172 
171 169 170 169 167 167 165 162 163 165 158 158 
155 154 152 153 148 144 142 141 135 92 86 81 
83 91 91 85 80 72 67 65 70 80 88 90 
86 87 75 79 89 102 142 143 144 145 147 153 
156 157 154 156 163 160 163 169 167 167 166 168 
169 171 169 169 169 163 165 163 158 161 160 158 
155 154 152 153 149 145 143 140 137 94 88 86 
90 90 89 85 76 68 55 60 70 80 85 87 
92 84 78 81 89 132 144 143 140 149 151 156 
152 154 154 162 164 158 161 162 167 167 166 171 
167 168 168 173 169 170 170 162 162 160 160 157 
154 154 154 151 149 145 143 141 138 89 89 78 
89 94 97 97 85 88 91 85 92 94 89 93 
92 81 79 89 93 127 147 140 150 150 149 154 
151 152 157 157 165 161 161 163 171 165 171 168 
171 169 169 167 168 166 167 166 163 162 160 157 
157 154 153 153 150 152 146 144 139 86 83 85 
81 86 95 98 102 92 99 99 100 102 94 97 
88 81 81 90 95 140 143 149 149 153 151 155 
156 159 159 158 161 159 166 164 167 167 169 168 
172 170 169 169 165 165 165 165 163 163 160 158 
156 156 154 152 150 149 146 144 141 87 83 80 
83 79 85 88 86 93 88 97 87 92 88 87 
76 78 87 86 89 136 146 148 153 149 154 154 
156 161 161 163 162 161 166 168 170 168 169 169 
170 170 167 171 166 166 172 164 163 161 167 157 
157 157 156 154 154 150 145 148 100 89 84 84 
83 77 78 85 72 76 67 74 75 70 80 78 
80 81 83 84 91 143 149 146 155 154 156 155 
158 156 162 160 166 163 167 167 166 167 168 171 
170 169 169 166 168 165 167 163 165 162 163 161 
158 158 155 154 153 153 152 170 90 90 88 85 
71 77 74 68 77 73 72 68 71 73 65 73 
80 81 87 88 91 95 153 153 152 158 158 156 
157 160 159 162 168 165 168 163 170 174 172 172 
171 170 170 167 168 169 166 166 164 165 166 162 
161 157 158 158 155 155 155 169 91 90 89 87 
78 80 81 72 69 69 65 63 65 64 68 79 
81 83 87 89 91 91 159 155 152 158 155 154 
158 163 160 162 163 166 169 171 173 171 171 172 
168 170 170 170 167 169 168 167 165 164 163 162 
162 163 161 158 159 175 179 183 88 86 84 86 
88 81 78 76 73 70 67 67 66 67 72 77 
76 87 89 90 91 91 83 160 159 154 159 159 
161 165 165 166 162 168 169 170 169 171 170 172 
172 172 171 170 170 172 168 167 166 168 167 164 
166 162 163 181 185 183 189 184 92 90 89 90 
86 86 85 79 77 75 69 71 70 75 72 82 
81 89 90 90 91 89 86 183 180 178 161 159 
162 163 166 168 168 169 166 170 171 170 171 171 
171 172 173 169 170 169 168 166 168 165 167 165 
170 183 190 187 186 189 185 183 170 95 92 90 
91 90 89 87 75 79 75 74 77 80 84 83 
90 90 90 92 93 92 116 186 188 178 190 182 
164 166 168 171 170 174 169 166 171 174 166 171 
173 171 173 171 171 172 175 170 170 168 193 189 
190 188 187 191 187 189 187 185 183 92 92 93 
93 93 91 89 90 79 82 80 84 83 87 88 
101 93 92 92 94 95 180 187 187 186 193 188 
187 191 189 173 169 170 169 170 169 173 171 173 
173 171 174 172 172 171 171 201 190 195 195 194 
188 189 191 192 191 185 187 187 181 184 97 94 
94 95 92 92 89 84 81 82 81 93 90 89 
93 95 97 95 95 92 190 193 188 191 195 181 
190 190 193 197 188 182 170 175 170 173 173 175 
173 171 174 173 192 190 198 196 193 197 194 195 
194 197 194 194 194 200 191 190 187 180 183 98 
93 93 91 93 92 87 86 84 82 91 93 91 
94 94 96 95 100 186 190 188 190 195 197 192 
195 193 189 197 188 192 196 196 180 175 176 174 
173 175 193 196 193 196 198 196 196 196 200 198 
194 197 195 197 196 195 195 190 190 186 184 183 
124 90 92 93 93 89 89 89 87 89 94 94 
98 94 96 100 190 186 190 188 192 201 197 194 
196 196 198 196 195 195 196 198 193 195 179 178 
176 192 195 194 196 198 197 199 200 200 201 199 
198 200 197 198 198 198 203 196 187 189 185 185 
182 186 95 94 88 90 90 90 93 91 91 94 
93 96 168 189 189 188 197 195 200 203 196 196 
198 198 195 199 202 200 200 203 195 197 194 193 
195 200 198 200 196 207 201 200 202 201 202 200 
200 196 201 200 201 198 199 203 198 196 190 186 
186 182 180 189 180 117 97 96 93 94 96 97 
185 189 188 186 186 194 197 205 204 198 202 201 
203 200 201 201 204 204 203 198 201 204 202 204 
203 204 203 204 202 204 202 203 204 205 203 203 
201 202 202 201 201 203 201 201 206 200 195 196 
195 194 191 183 177 181 189 187 188 187 189 187 
186 192 189 193 200 200 199 203 203 201 206 204 
203 202 201 203 203 207 205 205 207 207 204 205 
203 206 203 203 202 205 202 206 204 205 205 204 
203 205 204 205 206 206 205 204 203 210 201 201 
204 199 202 199 202 196 190 192 191 193 193 197 
194 202 197 203 202 205 208 205 203 205 205 207 
206 205 212 210 207 206 209 207 209 208 203 208 
206 206 207 209 206 207 208 205 206 205 204 205 
207 206 204 207 206 210 208 208 207 205 207 207 
206 208 208 203 206 208 207 208 207 205 206 207 
206 204 204 204 208 209 204 208 208 209 210 209 
206 208 207 211 207 211 211 211 212 209 208 209 
204 206 208 207 208 208 208 209 209 207 211 210 
209 205 207 208 209 211 212 209 212 207 209 208 
211 217 211 209 212 209 212 208 207 211 210 211 
210 210 212 212 205 205 209 208 208 207 207 209 
210 208 205 206 212 213 213 213 206 213 210 207 
212 209 209 204 209 208 212 211 209 207 210 209 
207 209 209 206 203 210 208 210 212 211 209 209 
207 205 207 214 213 215 215 212 213 217 214 220 
211 211 211 205 210 210 209 211 209 211 208 205 
208 207 207 208 208 212 209 209 211 214 212 206 
206 207 208 205 210 209 210 207 210 208 207 211 
212 209 208 210 210 209 209 211 209 211 211 211 
208 204 207 207 211 209 212 211 209 209 210 211 
210 208 212 211 215 212 210 210 210 210 211 209 
207 208 210 214 207 214 210 211 212 216 212 209 
205 203 208 210 210 211 210 216 211 210 211 210 
212 211 212 211 209 209 210 213 211 210 211 209 
207 208 210 209 211 210 207 207 207 208 209 207 
208 207 210 210 212 212 213 208 213 212 207 215 
206 208 208 210 212 211 214 209 214 211 212 211 
203 203 207 209 210 209 212 210 210 212 212 211 
214 211 212 210 210 210 211 208 210 213 211 210 
211 206 207 211 213 211 209 208 211 208 210 210 
207 210 211 209 210 212 209 215 211 212 211 207 
209 212 211 212 210 210 214 213 210 209 209 212 
201 204 204 207 211 207 208 212 212 210 209 211 
214 210 209 212 210 211 206 211 212 212 211 209 
211 212 210 213 210 210 211 210 215 213 208 211 
212 212 214 213 212 211 209 216 210 211 209 209 
212 208 210 210 211 214 212 211 211 210 210 212 
203 203 201 207 210 211 204 210 212 210 213 210 
212 212 210 211 213 211 210 209 213 209 210 209 
211 209 209 210 206 209 208 207 210 211 207 210 
211 213 208 212 212 213 212 211 212 213 212 212 
210 210 211 212 210 208 213 214 212 211 213 209 
204 206 201 206 209 212 208 209 211 210 211 211 
210 211 212 216 211 211 209 212 210 212 213 210 
208 210 213 210 213 208 208 211 211 211 214 210 
212 209 211 210 208 212 214 209 211 212 214 210 
210 213 213 213 211 211 213 214 214 208 209 208 
202 202 198 205 210 209 211 211 209 213 211 210 
212 210 212 213 211 209 213 213 214 211 212 211 
211 212 214 210 209 210 210 213 216 210 211 210 
210 216 213 213 211 212 213 210 214 212 213 210 
210 211 212 213 211 210 212 208 210 209 209 212 
206 203 198 202 212 209 208 207 211 210 212 210 
212 214 213 214 210 212 213 211 213 209 210 211 
209 213 214 211 209 212 211 209 212 209 213 211 
211 213 207 212 211 212 215 213 214 213 213 211 
210 212 216 213 212 209 213 213 207 209 207 211 
203 206 197 202 207 208 207 209 207 210 210 211 
212 213 212 211 210 211 214 217 211 213 213 207 
210 210 207 209 211 213 212 211 213 210 212 208 
211 211 212 210 216 211 215 212 211 213 214 211 
214 211 213 210 211 213 213 210 205 210 214 212 
